<?xml version="1.0" encoding="utf-8"?>
<!-- Generator: Adobe Illustrator 28.1.0, SVG Export Plug-In . SVG Version: 6.00 Build 0)  -->
<svg version="1.1" id="svg" xmlns="http://www.w3.org/2000/svg" xmlns:xlink="http://www.w3.org/1999/xlink" x="0px" y="0px"
	 viewBox="0 0 1024 1024" style="enable-background:new 0 0 1024 1024;" xml:space="preserve">
<style type="text/css">
	.st0{fill:url(#SVGID_1_);}
	.st1{fill:url(#SVGID_00000096771192810100088500000014730360862790346940_);}
	.st2{fill:url(#SVGID_00000181800217470266666060000005411730827779898791_);}
	.st3{fill:#413B7B;}
	.st4{fill:url(#SVGID_00000091693984162107853020000017099472994173681840_);}
	.st5{fill:#00BBF2;}
</style>
<linearGradient id="SVGID_1_" gradientUnits="userSpaceOnUse" x1="365.2476" y1="468.7808" x2="655.202" y2="970.9966">
	<stop  offset="0" style="stop-color:#413B7B"/>
	<stop  offset="1" style="stop-color:#00AEEF"/>
</linearGradient>
<path class="st0" d="M578.9,354.8c4.5,6.2,4.5,6.2,9.1,14.2c1.7,3,3.4,5.9,5.2,9c1.7,3.1,3.5,6.1,5.3,9.3c3.3,5.6,6.6,11.3,9.9,16.9
	c3.5,6.1,7.1,12.1,10.6,18.2c4,6.9,8,13.7,12,20.6c1,1.8,2.1,3.6,3.1,5.4c40.5,69.6,40.5,69.6,81.7,138.9c1.1,1.9,2.2,3.7,3.4,5.6
	c5.1,8.5,10.2,16.9,15.4,25.2c14.7,23.8,24.4,47.9,32.8,74.5c1.2,3.5,2.4,6.9,3.6,10.5c4.5,15.9,4,32.2,3.9,48.6c0,5,0,5,0,10.1
	c-0.4,24-2.5,44.6-10.7,67.2c-1.1,3.4-2.3,6.9-3.5,10.4c-19.1,55.4-59.8,109-113,135.5c-39.2,18.7-71.7,27.7-115.6,27.6
	c-3,0-3,0-6.1,0c-65.4-0.3-116.5-20.7-164.4-65.7c-19.9-21.1-35.8-44.1-49-69.9c-1.4-2.7-1.4-2.7-2.9-5.5
	c-6.3-13-8.7-24.6-10.1-38.9c3.5,0,7.1-0.1,10.7-0.1c28-0.8,50.2-3.2,75.6-15.6c7-3.4,13.3-5.4,20.8-7c1.3,3,2.5,6,3.8,9
	c16.2,36.2,36.7,57.8,74.1,73.2c35.7,12.3,73.1,6.9,107.2-7.5c35.2-17.6,54.9-48.2,68.2-84.5c18.9-76.9-41-146.7-78.2-209.2
	c-11.1-18.6-22.1-37.3-33.1-56c-1.4-2.4-2.8-4.7-4.2-7.1c-26.7-45.9-26.7-45.9-25.8-73.5c0-2.1,0.1-4.2,0.1-6.4
	c1.6-36,18.4-59,43.7-83.2C569.1,351.6,569.1,351.6,578.9,354.8z"/>
<linearGradient id="SVGID_00000170264088437931954810000008950934157935976064_" gradientUnits="userSpaceOnUse" x1="-2.4718" y1="457.8582" x2="624.0233" y2="96.1511">
	<stop  offset="0" style="stop-color:#5751A1"/>
	<stop  offset="1" style="stop-color:#413B7B"/>
</linearGradient>
<path style="fill:url(#SVGID_00000170264088437931954810000008950934157935976064_);" d="M523.7,23.5c4,1.2,4,1.2,8.1,2.4
	c53,18,87.5,63.3,114.9,109.6c3.6,8.2,3.6,8.2,0.4,18c-6.1,4-6.1,4-13.8,7.9c-21.3,10.8-34.1,23.5-46.9,43.2
	c-4.5,7-9.1,13.6-14,20.3c-2.1,0-4.3,0-6.5,0c-3.8-5.4-3.8-5.4-7.9-12.8c-2.3-4-2.3-4-4.6-8.2c-1.6-2.9-3.2-5.7-4.8-8.7
	C529,157.9,529,157.9,496.2,133c-24-6.5-51.6-6.1-74.7,3.2c-12.7,7.8-19.7,17-27.1,29.7c-1.7,2.8-1.7,2.8-3.3,5.6
	c-3.5,5.9-6.9,11.8-10.4,17.7c-2.2,3.7-4.4,7.5-6.6,11.2c-5.6,9.5-11.2,19-16.7,28.5c-19,32.6-38.1,65-57.6,97.3
	c-9.6,16-19.1,32-28.5,48.1c-9.9,16.9-20,33.8-30.2,50.5c-1.2,1.9-2.3,3.8-3.5,5.7c-4.8,7.9-9.6,15.7-14.4,23.6
	c-17.6,28.9-34.8,58-51.2,87.5c-13.3,23.7-24.3,41.4-51.2,50.3c-17.4,3-32.2,1.2-47.1-8.7c-14.3-12.4-18.9-26-20.5-44.7
	c1.1-25.6,13.4-43.7,26.7-64.9c6-9.8,11.9-19.6,17.7-29.5c18-30.6,36.2-61.1,54.5-91.6c17-28.3,33.5-56.8,50.1-85.3
	c18.3-31.4,36.6-62.7,55-94c7-11.9,14-23.9,20.9-35.9c33.5-57.6,71.7-103,138.9-121.4C452.8,9.3,489.3,12.2,523.7,23.5z"/>
<linearGradient id="SVGID_00000064348356995922060510000012058721799386984082_" gradientUnits="userSpaceOnUse" x1="566.0825" y1="294.0855" x2="923.0152" y2="500.1607">
	<stop  offset="0" style="stop-color:#413B7B"/>
	<stop  offset="1" style="stop-color:#00AEEF"/>
</linearGradient>
<path style="fill:url(#SVGID_00000064348356995922060510000012058721799386984082_);" d="M670.6,183.2c21.5,10.2,34.7,48,46.3,68.6
	c5.7,10.1,11.5,20.2,17.2,30.3c1.7,3.1,1.7,3.1,3.5,6.2c10.8,19,21.9,37.9,32.9,56.8c31.2,53.3,61.8,107,92.2,160.8
	c1.1,2,2.3,4,3.5,6.1c2.8,5,5.6,10,8.3,15c1.9,3.4,1.9,3.4,3.9,6.9c5.3,12.6,4.9,25.3,2.6,38.6c-6.5,13.1-13.9,23.2-27.1,29.8
	c-9.4,2.9-17.6,4.1-27.5,4.5c-4.8,0.3-4.8,0.3-9.6,0.6c-19.4-4.5-31.3-17.7-42.4-33.8c-6.1-10.1-11.8-20.2-17.4-30.5
	c-2.1-3.8-4.2-7.5-6.3-11.3c-4.3-7.6-8.6-15.3-12.9-23c-9-16-18.3-31.8-27.7-47.5c-3.5-5.8-6.9-11.7-10.4-17.5
	c-1.7-2.9-3.4-5.7-5.2-8.7c-10.5-17.7-21-35.5-31.5-53.3c-8.3-14-16.5-28-24.8-41.9c-3-5-5.9-10-8.9-15c-3.7-6.3-7.5-12.6-11.3-18.9
	c-1.7-2.8-3.4-5.6-5.1-8.6c-1.5-2.5-3-5-4.5-7.5c-9.5-17.4-9-36-6.8-55.3c8-21.5,25.9-37.9,45.5-49.2
	C655.2,182,661.9,181.6,670.6,183.2z"/>
<path class="st3" d="M488.7,218.2c21.4,16.1,34.4,45,47.9,67.8c1.7,2.7,3.3,5.4,5.1,8.2c1.5,2.6,3.1,5.2,4.7,7.9
	c1.4,2.3,2.8,4.7,4.3,7.1c2.2,6.7,2.2,6.7,0,13.6c-4.1,6-7.7,9.5-13.5,13.7c-10.9,8.7-17.2,18.2-23.8,30.4c-1.1,2-2.2,4-3.4,6
	c-8.7,16.1-14.8,32.3-18.8,50.2c-11.9-4-13.3-7.5-19.7-17.9c-6.2-10.9-6.2-10.9-16-17.9c-0.4,1.8-0.8,3.7-1.1,5.6
	c-2.3,8.2-5.7,14.9-9.8,22.4c-1.6,2.9-3.2,5.8-4.8,8.8c-1.7,3.1-3.4,6.2-5.2,9.3c-2.6,4.8-2.6,4.8-5.3,9.6
	c-11,20-22.2,39.9-33.7,59.6c-1.3,2.2-2.5,4.4-3.8,6.6c-11.2,19-22.7,37.8-43.5,47c-7.8,1.1-14.5,1.7-22.3,1.6c-3,0-3,0-6.1-0.1
	c-14.7-0.6-24.7-2.9-35.7-12.8c-12.5-15.2-15.1-30.1-14.8-49.4c1.5-12.6,7.3-21.5,14.1-31.9c3-4.9,6-9.7,9-14.6
	c1.6-2.6,3.3-5.2,5-7.9c8.6-13.7,16.9-27.6,25.2-41.5c3.1-5.1,6.1-10.2,9.2-15.3c11.6-19.2,23-38.5,34.3-57.9
	c1.2-2.1,2.5-4.2,3.7-6.4c6-10.2,11.9-20.5,17.9-30.8C437.8,203.5,437.8,203.5,488.7,218.2z"/>
<linearGradient id="SVGID_00000026873671025699069600000010866208299699814544_" gradientUnits="userSpaceOnUse" x1="382.6518" y1="568.6727" x2="382.6518" y2="794.7012">
	<stop  offset="0" style="stop-color:#413B7B"/>
	<stop  offset="1" style="stop-color:#00AEEF"/>
</linearGradient>
<path style="fill:url(#SVGID_00000026873671025699069600000010866208299699814544_);" d="M456.5,572.5c14.7,11,23.2,22.9,26.5,41.2
	c0.9,17.7-1.1,32-11.5,46.6c-9.9,9.9-21.5,16.9-33.2,24.5c-16.2,10.9-24.4,22.1-31.6,40.4c-11.8,28.6-23.2,49.2-52.2,62.6
	c-17,6.4-37.3,10.3-54.6,3c-9.4-5.9-13.1-9.5-16.6-20.2c-6.9-49.2,18.2-101.5,46.3-140.2C359.3,591.4,405.2,557,456.5,572.5z"/>
<circle class="st5" cx="537.2" cy="757.6" r="84.3"/>
</svg>
